<?xml version="1.0" standalone="no"?>
<!DOCTYPE svg PUBLIC "-//W3C//DTD SVG 20010904//EN"
 "http://www.w3.org/TR/2001/REC-SVG-20010904/DTD/svg10.dtd">
<svg version="1.0" xmlns="http://www.w3.org/2000/svg"
 width="1521.000000pt" height="1521.000000pt" viewBox="0 0 1521.000000 1521.000000"
 preserveAspectRatio="xMidYMid meet">
<metadata>
Created by potrace 1.11, written by Peter Selinger 2001-2013
</metadata>
<g transform="translate(0.000000,1521.000000) scale(0.100000,-0.100000)"
fill="#000000" stroke="none">
<path d="M10848 12115 c-2 -1 -50 -5 -108 -9 -58 -4 -123 -9 -145 -11 -22 -2
-71 -6 -110 -10 -38 -3 -72 -8 -75 -10 -3 -2 -31 -6 -63 -9 -163 -18 -427 -77
-617 -139 -290 -94 -567 -237 -777 -399 -38 -28 -86 -65 -108 -82 -22 -17 -42
-33 -45 -36 -3 -3 -48 -42 -100 -87 -121 -104 -285 -271 -423 -431 -56 -66
-185 -240 -252 -342 -269 -407 -552 -1043 -754 -1690 -29 -91 -56 -175 -61
-188 l-10 -22 707 2 707 3 39 95 c20 52 40 102 43 110 43 115 254 553 308 639
14 22 26 43 26 46 0 6 131 218 140 225 3 3 14 19 25 35 98 154 338 402 526
545 190 143 355 232 562 301 119 40 297 81 407 94 30 4 57 8 60 10 10 6 253
18 365 18 101 0 295 -10 355 -18 14 -2 45 -6 70 -9 25 -4 56 -8 70 -11 23 -5
68 -13 114 -21 48 -9 218 -56 281 -78 140 -50 160 -58 274 -113 508 -244 911
-627 1209 -1148 32 -57 143 -281 168 -340 29 -69 105 -276 110 -299 2 -10 8
-34 14 -52 l12 -34 643 0 c607 0 643 1 639 18 -2 9 -13 62 -24 117 -29 138
-83 350 -119 470 -29 96 -111 328 -130 370 -5 11 -33 74 -62 140 -161 373
-426 795 -655 1045 -23 25 -55 61 -73 81 -34 40 -227 231 -276 274 -16 14 -47
40 -68 58 -22 18 -49 40 -60 50 -61 52 -93 75 -264 193 -453 311 -924 499
-1498 599 -32 5 -117 16 -150 19 -16 2 -52 6 -80 9 -125 16 -209 20 -477 22
-158 2 -288 2 -290 0z"/>
<path d="M1694 11795 c-65 -53 -155 -128 -199 -167 -99 -88 -324 -315 -385
-387 -25 -29 -56 -66 -70 -81 -43 -48 -64 -73 -105 -130 -49 -67 -49 -68 -79
-105 -97 -123 -283 -445 -377 -654 -97 -216 -243 -622 -265 -735 -3 -19 -12
-37 -20 -40 -8 -3 -13 -21 -13 -48 0 -24 -7 -69 -15 -100 -9 -32 -18 -72 -21
-90 -3 -18 -10 -49 -15 -68 -11 -43 -16 -68 -37 -200 -9 -58 -21 -109 -28
-115 -6 -5 -14 -18 -18 -27 -4 -13 -2 -15 10 -11 11 5 14 1 10 -13 -3 -10 -9
-48 -12 -84 -4 -36 -9 -78 -11 -95 -2 -16 -6 -64 -9 -105 -3 -41 -8 -91 -11
-110 -20 -121 -19 -730 1 -940 2 -25 7 -79 10 -120 3 -41 8 -86 10 -100 2 -14
7 -47 10 -75 6 -61 14 -120 21 -160 3 -16 7 -41 9 -55 6 -45 26 -153 50 -270
92 -440 217 -816 400 -1195 56 -117 86 -174 180 -340 44 -77 156 -246 247
-370 123 -168 376 -445 507 -556 483 -406 929 -646 1461 -785 118 -31 326 -73
402 -81 46 -5 61 -11 73 -29 19 -29 32 -30 40 -4 4 11 10 18 13 16 43 -26
1036 -27 1082 -1 3 2 34 6 70 10 56 6 187 25 285 41 303 51 625 159 915 306
194 98 216 111 371 214 351 233 632 511 907 897 231 326 373 595 587 1112 7
17 20 46 28 65 17 37 53 132 142 370 102 276 133 367 249 725 65 198 121 370
127 383 5 13 9 29 9 35 0 10 -140 13 -677 12 l-676 0 -83 -242 c-72 -211 -100
-287 -169 -463 -7 -19 -27 -71 -44 -115 -41 -111 -121 -294 -170 -392 -23 -46
-46 -93 -51 -105 -6 -13 -20 -39 -31 -58 -12 -19 -32 -55 -46 -80 -66 -123
-228 -360 -342 -500 -271 -334 -518 -541 -801 -672 -157 -72 -430 -155 -571
-173 -30 -4 -57 -9 -60 -11 -4 -2 -31 -6 -60 -9 -30 -3 -63 -8 -74 -10 -131
-25 -586 -25 -800 0 -276 33 -539 108 -771 222 -694 340 -1173 949 -1413 1798
-29 105 -73 290 -85 365 -3 19 -8 46 -11 60 -3 14 -8 43 -10 65 -3 22 -7 47
-10 55 -2 8 -7 49 -10 90 -4 41 -8 77 -10 80 -1 3 -6 55 -11 115 -16 202 -9
708 11 838 4 28 13 99 20 155 8 67 44 249 66 337 26 101 99 337 109 350 4 6
17 35 28 65 39 105 142 311 206 410 98 152 125 192 164 245 148 197 418 480
446 469 11 -4 16 0 16 13 0 20 31 51 145 142 39 31 75 61 82 66 6 6 36 28 66
50 l53 40 -135 187 c-75 104 -140 196 -146 206 -5 9 -12 19 -15 22 -6 6 -38
51 -294 405 -99 138 -193 269 -209 293 -15 23 -32 42 -36 42 -4 0 -61 -43
-127 -95z"/>
<path d="M9847 8568 c-103 -104 -172 -207 -211 -317 -27 -77 -30 -98 -29 -196
0 -60 4 -126 7 -145 14 -71 74 -210 116 -270 10 -14 21 -52 25 -85 7 -68 23
-105 35 -85 4 7 5 29 3 49 l-5 36 21 -27 c14 -17 24 -47 27 -80 5 -50 11 -61
57 -97 16 -12 17 -10 13 33 -3 44 -2 46 15 30 16 -14 126 -16 1210 -15 l1193
0 51 53 c73 77 136 159 171 223 5 11 22 40 36 65 71 128 100 316 70 455 -18
81 -71 193 -125 262 -46 59 -132 146 -177 176 -23 16 -111 17 -1222 17 l-1198
0 -83 -82z"/>
<path d="M14440 8600 c-12 -8 -10 -10 8 -10 13 0 20 4 17 10 -7 12 -6 12 -25
0z"/>
<path d="M13990 7510 c-3 -116 -10 -303 -14 -340 -3 -25 -8 -79 -11 -120 -4
-41 -8 -82 -10 -90 -4 -14 -9 -50 -21 -145 -2 -22 -14 -85 -24 -140 -11 -55
-22 -109 -24 -120 -29 -147 -133 -481 -187 -601 -10 -22 -27 -64 -38 -92 -52
-132 -194 -393 -296 -542 -167 -246 -413 -519 -610 -678 -38 -31 -72 -58 -75
-61 -36 -40 -368 -271 -390 -271 -5 0 -10 -3 -10 -7 0 -5 -23 -21 -51 -36 -28
-16 -48 -34 -46 -40 8 -22 746 -1125 756 -1132 20 -12 110 54 266 195 69 62
621 615 724 725 674 721 1086 1607 1216 2615 4 30 9 62 10 70 2 8 6 49 10 90
4 41 9 88 10 105 13 106 25 300 30 480 l4 160 -609 0 -610 0 0 -25z"/>
<path d="M1390 4243 c0 -13 53 -63 67 -63 7 0 13 11 13 25 0 18 -7 28 -26 35
-30 12 -54 13 -54 3z"/>
</g>
</svg>
